<?xml version="1.0" standalone="no"?>
<!DOCTYPE svg PUBLIC "-//W3C//DTD SVG 20010904//EN"
 "http://www.w3.org/TR/2001/REC-SVG-20010904/DTD/svg10.dtd">
<svg version="1.0" xmlns="http://www.w3.org/2000/svg"
 width="1074.000000pt" height="1450.000000pt" viewBox="0 0 1074.000000 1450.000000"
 preserveAspectRatio="xMidYMid meet">

<g transform="translate(0.000000,1450.000000) scale(0.100000,-0.100000)"
fill="#000000" stroke="none">
<path d="M5277 14334 c-4 -4 -7 -139 -7 -299 0 -255 2 -294 16 -306 11 -9 20
-10 32 -2 15 9 17 41 17 309 l0 299 -25 3 c-14 2 -29 0 -33 -4z"/>
<path d="M7843 13868 c-5 -7 -35 -61 -66 -119 -57 -107 -145 -247 -219 -346
-40 -54 -43 -78 -12 -90 22 -8 102 73 168 172 30 44 85 142 122 218 56 111 67
141 58 155 -14 22 -38 27 -51 10z"/>
<path d="M2652 13618 c-7 -7 -12 -17 -12 -24 0 -7 60 -86 133 -175 72 -90 161
-206 197 -259 68 -99 91 -116 110 -80 9 17 5 32 -30 95 -54 97 -110 173 -243
328 -106 123 -130 140 -155 115z"/>
<path d="M5225 13260 c-16 -4 -66 -5 -111 -2 -110 7 -308 -13 -559 -54 -249
-42 -306 -55 -427 -95 -51 -17 -148 -46 -215 -65 -68 -18 -172 -56 -231 -83
-59 -27 -129 -56 -157 -65 -27 -9 -88 -39 -135 -67 -47 -29 -120 -71 -162 -94
-42 -23 -89 -52 -105 -64 -62 -48 -153 -110 -184 -127 -98 -50 -306 -216 -403
-321 -38 -41 -94 -91 -125 -113 -32 -21 -70 -55 -86 -77 -16 -21 -70 -78 -121
-128 -50 -49 -104 -110 -119 -134 -15 -25 -47 -65 -70 -90 -44 -47 -154 -201
-201 -281 -15 -25 -48 -79 -73 -120 -52 -83 -92 -164 -111 -225 -7 -22 -23
-56 -36 -75 -30 -45 -68 -148 -84 -225 -7 -33 -23 -82 -35 -110 -13 -27 -30
-97 -39 -155 -19 -129 -39 -221 -60 -279 -9 -24 -16 -69 -16 -101 0 -32 -6
-75 -14 -97 -11 -30 -14 -104 -15 -299 0 -142 -3 -288 -6 -324 -5 -45 0 -104
15 -195 11 -71 23 -159 26 -195 3 -36 14 -103 24 -150 10 -47 33 -152 50 -235
17 -82 42 -173 54 -200 13 -28 29 -75 36 -105 7 -30 28 -85 46 -121 18 -36 35
-83 39 -105 7 -39 88 -229 126 -294 11 -19 52 -100 91 -180 40 -80 84 -165
100 -189 15 -24 33 -60 39 -80 7 -20 35 -72 64 -116 29 -44 60 -95 69 -113 10
-18 32 -50 50 -70 18 -20 70 -100 117 -176 46 -76 107 -164 135 -195 28 -31
63 -79 77 -108 15 -28 43 -71 64 -96 65 -77 113 -140 156 -204 23 -34 87 -125
142 -202 100 -140 216 -330 276 -451 18 -35 43 -78 56 -95 23 -29 72 -132 153
-320 21 -49 53 -139 70 -200 18 -60 50 -168 71 -240 21 -71 43 -150 48 -175
19 -85 53 -315 56 -375 2 -33 9 -130 16 -215 12 -148 15 -294 10 -425 -2 -33
-2 -94 -2 -136 2 -92 -2 -120 -35 -224 -32 -100 -40 -113 -136 -205 l-78 -76
0 -78 c0 -64 5 -89 30 -146 16 -38 30 -73 30 -80 0 -6 -15 -29 -32 -52 l-33
-40 -1 -127 c0 -88 -6 -147 -19 -196 l-18 -70 41 -145 c52 -187 64 -273 53
-375 -10 -99 2 -254 24 -317 12 -35 29 -56 62 -81 l46 -34 1 -76 c1 -86 15
-112 83 -161 32 -22 57 -30 119 -37 81 -8 162 -29 224 -57 52 -23 197 -110
262 -157 65 -47 199 -188 223 -236 23 -44 89 -113 149 -156 28 -20 69 -53 91
-74 71 -68 82 -70 414 -74 340 -4 427 8 531 70 30 18 73 38 95 45 58 19 144
76 189 127 21 24 52 51 70 60 17 9 65 50 106 92 41 43 104 97 140 121 88 59
252 183 268 203 28 33 137 85 202 96 94 16 247 58 305 85 89 41 303 231 351
312 13 23 33 81 44 130 16 74 18 100 9 154 -8 52 -6 80 7 140 9 41 20 152 26
245 5 94 12 206 15 250 3 44 -1 130 -7 190 -16 143 -14 230 6 286 33 92 13
191 -48 229 -30 19 -43 21 -153 15 -66 -3 -136 -8 -156 -11 l-36 -5 -12 58
c-16 74 -18 379 -4 548 12 145 32 245 68 352 14 39 25 80 25 91 0 53 63 281
95 342 9 18 37 107 61 198 24 92 60 212 80 267 20 55 54 154 76 220 63 188
168 451 200 502 16 25 38 72 47 104 10 31 43 97 73 146 31 48 86 138 123 198
37 61 84 135 105 165 20 30 48 75 60 100 12 24 46 69 75 100 29 30 60 71 70
90 10 19 48 67 85 105 177 184 407 406 427 412 6 2 44 45 84 95 41 49 115 138
164 197 128 152 168 209 250 356 121 216 185 339 199 385 10 30 29 71 42 91
12 21 30 61 39 90 9 30 21 65 26 79 5 14 13 48 19 75 6 28 26 97 44 155 41
126 70 262 61 290 -4 11 3 48 14 83 11 34 25 103 31 152 6 50 19 119 28 155
14 54 17 116 17 365 l0 300 -43 164 c-23 90 -42 173 -42 183 0 11 -22 111 -49
222 -27 110 -57 239 -67 286 -9 47 -28 114 -41 149 -12 35 -23 84 -23 110 0
25 -10 66 -21 91 -11 25 -40 99 -65 164 -24 66 -62 149 -84 186 -22 36 -40 71
-40 77 0 15 -139 220 -207 305 -85 106 -212 227 -343 326 -63 47 -135 103
-160 123 -25 20 -59 44 -77 53 -17 8 -66 40 -108 71 -42 30 -82 55 -87 55 -5
0 -84 45 -175 101 -91 55 -189 111 -219 124 -29 13 -73 37 -97 53 -42 29 -124
70 -263 130 -133 57 -239 100 -264 107 -14 4 -81 29 -150 55 -69 27 -165 58
-215 70 -49 11 -115 32 -145 45 -69 30 -179 59 -290 74 -47 7 -119 18 -160 26
-119 22 -267 39 -365 42 -49 2 -137 5 -195 8 -201 9 -485 12 -515 5z m915
-133 c96 -4 119 -9 270 -59 91 -31 181 -59 200 -63 19 -4 87 -27 150 -52 63
-25 168 -60 232 -79 64 -19 162 -56 217 -84 55 -28 123 -55 151 -61 74 -16
156 -50 235 -97 38 -23 105 -56 149 -73 95 -35 203 -90 266 -134 25 -17 89
-53 143 -81 54 -27 121 -68 150 -92 29 -23 70 -53 92 -65 69 -40 316 -239 405
-328 47 -46 102 -109 122 -139 20 -31 50 -65 65 -77 16 -11 44 -49 63 -84 18
-35 45 -82 60 -104 43 -64 185 -353 210 -429 13 -39 31 -84 41 -101 10 -17 23
-62 29 -100 5 -39 19 -99 30 -133 11 -35 20 -80 20 -99 0 -19 7 -63 16 -97 9
-33 36 -160 61 -281 24 -121 51 -251 59 -290 8 -38 15 -101 15 -140 0 -38 2
-174 5 -302 5 -198 4 -239 -10 -279 -9 -26 -16 -77 -16 -113 0 -36 -12 -115
-26 -176 -14 -60 -29 -140 -34 -177 -5 -37 -16 -82 -24 -101 -7 -19 -21 -67
-30 -107 -9 -40 -23 -88 -31 -106 -8 -19 -24 -69 -35 -111 -12 -43 -32 -96
-45 -118 -13 -22 -31 -67 -40 -100 -10 -33 -30 -85 -45 -115 -16 -30 -51 -102
-78 -160 -28 -58 -64 -123 -82 -145 -18 -22 -45 -65 -60 -95 -16 -30 -43 -71
-60 -90 -18 -19 -48 -60 -68 -90 -68 -105 -237 -290 -446 -490 -100 -96 -274
-286 -331 -360 -27 -36 -78 -99 -114 -140 -36 -42 -83 -105 -104 -141 -21 -36
-56 -87 -78 -115 -72 -90 -131 -185 -176 -282 -24 -54 -61 -133 -83 -177 -21
-44 -41 -91 -45 -105 -4 -14 -22 -54 -40 -90 -18 -36 -36 -85 -40 -110 -4 -25
-22 -72 -40 -105 -18 -33 -40 -89 -49 -125 -9 -36 -26 -80 -37 -98 -11 -19
-28 -64 -38 -100 -11 -37 -31 -93 -45 -124 -15 -31 -31 -82 -36 -113 -5 -31
-18 -71 -29 -88 -56 -93 -198 -659 -227 -907 -8 -74 -22 -182 -31 -240 -8 -58
-17 -153 -19 -213 -5 -122 -27 -280 -44 -318 -23 -49 -51 -57 -245 -64 -271
-10 -345 8 -373 91 -7 21 -19 42 -27 47 -8 4 -26 45 -39 90 -53 175 -86 414
-107 772 -13 228 -7 987 10 1235 47 670 123 1203 214 1500 l23 75 91 -3 c53
-2 107 1 127 8 49 16 100 79 123 151 10 32 21 59 24 59 4 0 12 -13 19 -30 7
-16 30 -46 51 -65 39 -35 76 -43 158 -36 98 9 151 133 166 392 9 138 1 202
-23 197 -13 -2 -18 -19 -22 -73 l-5 -70 -6 68 c-7 75 -11 82 -34 74 -12 -5
-15 -23 -15 -85 0 -147 -49 -350 -82 -340 -59 20 -121 242 -155 555 l-18 161
-45 0 c-25 -1 -62 -8 -84 -16 l-38 -15 6 -71 c4 -39 11 -114 16 -166 25 -250
-2 -466 -65 -534 -33 -35 -50 -33 -79 12 -75 112 -107 483 -61 692 20 88 73
205 109 239 l25 23 20 -33 c12 -19 24 -50 27 -69 9 -48 12 -52 36 -39 15 8 22
8 28 -1 5 -9 16 -8 43 4 l36 15 -14 47 c-16 54 -55 99 -99 114 -43 14 -155 6
-192 -13 -121 -63 -244 -360 -244 -588 0 -77 -1 -79 -24 -79 -21 0 -26 -7 -36
-51 -15 -62 -23 -59 -11 4 8 45 7 47 -14 47 -20 0 -24 -9 -40 -82 -32 -147
-82 -274 -123 -311 -20 -18 -21 -18 -39 9 -25 39 -29 195 -9 405 34 356 15
429 -111 429 -31 0 -71 -7 -90 -17 -40 -19 -123 -123 -150 -190 -20 -48 -33
-55 -33 -19 0 46 -39 152 -66 176 -22 22 -35 25 -96 25 l-70 0 -48 -52 c-27
-29 -61 -80 -77 -112 -15 -33 -31 -60 -34 -60 -4 -1 -9 18 -12 42 -11 73 -27
117 -56 149 -23 26 -37 32 -84 36 -31 2 -67 2 -81 -2 -50 -13 -94 -107 -127
-279 -24 -122 -24 -139 -2 -135 12 2 20 21 29 68 16 86 34 153 40 147 3 -3 -4
-53 -15 -111 -12 -59 -21 -109 -21 -112 0 -2 9 -4 20 -4 11 0 20 2 20 5 0 24
45 206 56 228 37 71 49 1 49 -288 0 -121 -3 -275 -7 -342 l-8 -121 43 -21 c25
-12 63 -21 90 -21 54 0 46 -23 71 215 27 248 76 449 137 554 34 59 45 58 60
-5 17 -75 7 -524 -16 -687 -5 -37 -4 -39 37 -57 24 -10 66 -20 93 -21 47 -3
50 -2 53 21 13 113 70 420 97 527 35 135 80 248 108 271 14 12 17 9 22 -21 4
-19 -1 -106 -10 -193 -35 -330 -20 -472 58 -550 39 -38 47 -41 110 -47 111
-10 154 19 212 146 24 52 73 232 91 332 6 38 8 35 29 -65 23 -108 63 -225 89
-261 13 -19 12 -28 -5 -77 -184 -533 -305 -2016 -239 -2927 21 -289 65 -583
105 -694 8 -24 15 -47 15 -51 0 -14 -99 -32 -139 -25 -30 5 -49 2 -78 -14 -21
-11 -75 -27 -120 -37 -72 -15 -90 -16 -140 -4 -32 7 -114 14 -183 16 -69 1
-242 10 -385 19 -143 9 -312 18 -376 20 -63 1 -124 7 -136 13 -19 11 -19 12
13 79 63 128 106 326 141 641 22 200 25 1092 5 1352 -59 759 -154 1307 -272
1567 l-30 65 41 46 c22 26 57 76 77 111 38 70 136 310 128 318 -2 3 -26 6 -53
7 l-49 3 -18 -46 c-78 -194 -183 -368 -246 -404 -40 -24 -54 -18 -81 35 -33
64 -21 152 65 503 41 165 72 303 69 308 -14 23 -87 48 -134 45 l-51 -3 -34
-135 c-79 -309 -161 -507 -248 -596 -58 -60 -91 -69 -127 -33 -20 20 -21 29
-16 118 3 57 20 157 41 246 68 287 91 413 80 442 -14 40 -55 65 -115 69 l-54
4 -39 -171 c-41 -179 -50 -196 -98 -184 -21 5 -31 -6 -83 -86 -59 -93 -180
-229 -202 -229 -7 0 -21 12 -30 27 -14 21 -18 46 -17 113 2 89 21 189 79 400
50 183 59 247 45 314 -8 42 -19 62 -43 82 -28 23 -38 26 -92 22 -44 -3 -70
-10 -95 -28 -38 -27 -36 -22 37 77 90 122 258 384 311 483 60 114 82 183 82
262 0 79 -25 106 -96 106 -70 1 -120 -26 -190 -99 -129 -136 -232 -328 -387
-719 -99 -249 -241 -639 -287 -788 -31 -103 -31 -103 -13 -135 16 -26 26 -32
54 -32 19 -1 39 -4 44 -7 18 -11 29 2 115 147 162 272 381 585 409 585 9 0 -2
-46 -77 -346 -85 -340 -75 -520 31 -552 61 -19 145 -23 180 -9 46 20 136 121
197 222 29 48 54 85 55 83 2 -2 -3 -32 -11 -68 -21 -95 -29 -285 -14 -340 24
-90 108 -140 235 -140 71 0 113 18 163 69 22 23 42 41 46 41 3 0 6 -12 6 -27
1 -71 55 -138 130 -161 44 -14 156 -19 193 -8 26 8 28 5 52 -48 182 -412 319
-1680 276 -2565 -22 -461 -69 -744 -152 -918 l-30 -63 -49 0 c-90 0 -149 19
-196 62 l-44 41 0 -46 c0 -83 -46 -109 -169 -96 -62 6 -68 10 -104 50 -21 24
-41 56 -44 71 -5 27 -8 28 -64 28 l-59 0 31 63 c17 34 41 76 53 92 32 43 106
172 106 184 0 6 -10 11 -22 11 -26 0 -144 -54 -170 -77 -10 -9 -18 -14 -18
-11 0 11 104 224 122 250 10 15 29 52 43 81 l24 55 -58 -18 c-71 -21 -131 -33
-131 -25 0 3 11 22 25 43 13 20 36 68 50 105 14 37 40 96 58 130 17 34 33 65
35 69 2 4 -22 -4 -54 -18 -52 -23 -144 -47 -152 -39 -2 2 11 32 29 66 26 51
80 170 126 276 5 14 -5 13 -120 -9 -32 -6 -60 -8 -64 -5 -3 4 5 21 19 39 24
31 158 286 158 299 0 24 -42 11 -126 -38 -86 -50 -97 -54 -111 -40 -20 19 -6
68 42 147 18 30 42 79 53 108 l20 52 -26 -7 c-15 -3 -37 -10 -50 -14 -21 -8
-102 -13 -102 -6 0 9 64 164 95 230 20 44 35 80 33 82 -2 2 -51 -11 -110 -29
-60 -18 -108 -29 -108 -25 0 4 20 54 44 111 24 57 46 120 50 141 7 37 7 38
-21 31 -15 -4 -63 -20 -106 -36 l-79 -28 7 32 c4 18 29 94 56 168 26 74 46
136 44 138 -5 5 -83 -36 -141 -75 -46 -30 -55 -32 -78 -22 -31 15 -32 12 40
201 29 78 52 143 51 145 -4 3 -137 -86 -180 -119 -24 -19 -29 -20 -41 -8 -18
19 1 79 67 208 26 50 43 92 39 92 -5 0 -30 -15 -57 -34 -42 -31 -71 -41 -174
-62 -23 -5 -24 -4 -17 42 3 26 15 77 25 113 11 36 23 83 27 104 l6 38 -110
-55 c-61 -31 -113 -56 -116 -56 -11 0 7 84 36 169 15 47 28 89 28 94 0 6 -39
7 -99 3 l-98 -7 13 98 c8 54 16 104 19 111 5 13 1 13 -109 -15 -32 -8 -60 -12
-62 -10 -5 4 47 168 70 219 11 27 12 36 4 33 -7 -2 -66 -22 -131 -45 -65 -23
-120 -40 -122 -38 -8 8 52 163 99 257 26 51 46 95 44 96 -2 2 -33 -16 -69 -40
-83 -56 -159 -90 -159 -71 0 7 14 40 31 72 65 122 98 188 94 192 -2 2 -32 -7
-67 -21 -75 -30 -156 -52 -165 -44 -3 3 19 33 49 66 29 33 68 87 84 120 l31
61 -71 0 c-57 0 -81 -5 -120 -26 -26 -14 -47 -22 -44 -17 2 4 29 61 61 125 31
64 57 119 57 122 0 3 -25 -6 -57 -19 -57 -25 -173 -57 -173 -47 0 3 17 28 38
56 21 28 53 76 71 106 19 30 40 65 48 77 8 11 10 24 5 27 -13 8 -117 -44 -194
-97 -57 -40 -68 -44 -79 -31 -16 20 12 112 54 174 28 43 82 169 74 176 -2 2
-34 -16 -72 -41 -85 -56 -167 -84 -189 -65 -22 17 -20 23 15 61 142 152 189
208 189 227 0 12 -3 22 -7 22 -4 0 -63 -28 -132 -62 l-124 -62 -18 23 c-18 22
-18 24 11 66 16 23 77 89 135 146 103 101 105 103 87 122 -19 18 -22 17 -152
-52 -74 -39 -136 -69 -139 -66 -2 3 -7 32 -9 65 l-4 60 73 78 c91 94 124 137
144 185 l15 37 -37 -16 c-21 -9 -45 -18 -53 -21 -8 -3 -50 -21 -93 -41 -73
-33 -79 -34 -95 -19 -15 16 -13 20 34 70 28 28 65 72 82 97 16 25 44 58 61 74
23 22 28 33 21 46 -9 16 -17 15 -111 -13 -84 -24 -103 -27 -110 -16 -5 8 -9
18 -9 23 0 5 57 64 126 132 102 100 124 127 115 138 -10 12 -20 12 -69 -1 -31
-8 -78 -24 -104 -35 -82 -35 -106 -4 -38 51 22 17 56 55 75 84 19 29 51 71 71
95 23 26 34 46 28 52 -12 12 -100 -10 -166 -41 -40 -19 -50 -20 -63 -9 -14 12
-11 19 32 63 26 27 73 66 103 87 30 21 74 58 97 82 35 36 40 46 30 59 -12 15
-22 15 -125 -9 -91 -21 -115 -23 -125 -13 -10 10 -3 20 33 49 25 21 63 55 85
77 23 22 62 59 88 83 26 23 47 47 47 52 0 5 -44 11 -97 12 l-98 3 50 50 c28
28 80 74 118 104 54 44 66 59 61 75 -4 12 -8 22 -9 24 -2 2 -39 -2 -83 -8 -45
-7 -86 -10 -93 -8 -12 4 22 40 124 130 l58 52 -68 20 c-37 11 -70 21 -72 22
-5 4 73 77 142 132 33 26 69 55 80 65 l22 18 -30 -5 c-66 -12 -185 -19 -185
-10 0 5 19 22 41 38 23 16 69 52 103 81 33 28 83 64 110 79 54 32 52 38 -26
57 -27 6 -48 14 -48 19 0 4 19 20 43 35 80 54 237 187 237 202 0 15 -17 14
-164 -3 l-29 -3 39 40 c21 22 55 50 74 62 60 36 160 129 166 154 4 13 1 44 -6
68 -11 40 -10 46 11 77 12 18 66 76 120 129 53 53 115 122 138 153 23 30 51
61 64 67 12 7 67 56 122 109 55 54 145 128 200 166 55 37 122 85 149 107 27
21 66 47 87 57 20 11 79 46 131 78 126 80 411 223 534 267 372 136 439 155
762 206 100 16 201 34 225 39 51 13 389 27 822 36 176 3 321 7 322 8 2 1 66 0
263 -7z m-2730 -4347 c0 -79 -112 -291 -277 -526 -124 -177 -137 -194 -140
-190 -6 6 147 359 199 456 69 130 184 290 209 290 5 0 9 -14 9 -30z m405
-5826 c50 0 128 -6 175 -12 47 -6 182 -16 300 -22 118 -6 285 -15 370 -20 85
-6 211 -10 280 -10 69 0 157 -5 195 -11 76 -11 377 -29 600 -35 335 -9 440
-12 610 -19 175 -7 239 -3 420 26 39 7 106 11 150 11 45 -1 103 5 133 14 35
10 72 13 110 9 43 -5 72 -1 121 14 35 12 66 19 69 17 13 -14 -35 -123 -85
-194 -95 -133 -175 -162 -533 -192 -52 -4 -174 -15 -270 -23 -140 -13 -211
-14 -360 -6 -102 6 -252 12 -335 14 -82 3 -184 9 -225 14 -41 5 -104 7 -140 6
-36 -2 -87 1 -115 6 -60 11 -481 34 -580 31 -81 -2 -182 23 -190 47 -3 9 0 32
5 51 27 93 0 92 -101 -5 -47 -45 -87 -75 -100 -75 -33 0 -73 29 -105 76 -16
24 -33 44 -37 44 -4 0 -36 -15 -70 -32 -102 -54 -93 -54 -127 12 l-30 59 -72
-25 c-39 -13 -73 -24 -74 -24 -1 0 -5 13 -9 30 -10 44 -42 80 -72 80 -15 0
-55 -11 -90 -26 -42 -16 -79 -24 -106 -22 -41 3 -42 4 -49 46 -4 24 -3 54 2
67 23 60 110 99 195 88 28 -4 91 -8 140 -9z m120 -424 c72 -5 137 -12 145 -15
9 -3 36 -1 62 3 28 6 68 5 100 -1 29 -5 105 -11 168 -14 63 -2 156 -6 205 -8
209 -7 330 -16 359 -23 17 -5 63 -10 101 -11 39 -1 115 -6 170 -11 113 -10
389 -21 665 -26 102 -2 245 -7 318 -10 82 -4 179 -3 250 5 264 26 326 34 356
43 17 6 72 14 121 18 50 5 122 12 161 15 60 7 82 4 140 -15 38 -13 71 -24 73
-27 3 -2 -9 -18 -26 -36 -17 -17 -45 -52 -62 -77 -37 -51 -50 -58 -108 -59
-23 -1 -67 -12 -97 -25 -35 -16 -90 -28 -158 -35 -82 -9 -432 -13 -783 -10
-22 0 -141 0 -264 0 -123 0 -229 2 -234 6 -9 6 -92 13 -393 32 -83 6 -164 12
-180 15 -16 3 -83 8 -149 11 -66 3 -147 10 -180 15 -71 11 -149 17 -340 27
-157 9 -160 9 -481 2 l-231 -4 -79 41 c-85 44 -96 62 -75 117 7 19 22 29 53
38 95 27 156 36 208 32 30 -2 114 -7 185 -13z m525 -354 c129 -3 255 -5 280
-4 70 2 87 1 210 -10 162 -16 277 -20 670 -27 190 -3 383 -10 430 -16 123 -14
603 -15 755 -2 72 6 164 18 205 26 203 40 281 42 300 8 7 -14 -10 -28 -96 -80
-104 -63 -105 -64 -164 -58 -37 3 -77 0 -105 -8 -114 -35 -475 -45 -1685 -49
-696 -2 -806 1 -997 35 l-113 20 -21 -20 c-50 -46 -141 -51 -207 -11 -33 21
-117 38 -229 47 -51 4 -63 9 -63 23 0 16 -3 17 -43 2 -41 -15 -96 -12 -125 7
-24 15 29 94 69 104 95 25 281 27 929 13z m2850 -295 c22 -42 13 -56 -67 -94
-185 -87 -223 -99 -293 -93 -36 4 -81 2 -100 -4 -19 -6 -82 -13 -140 -15 -58
-3 -148 -7 -200 -11 -195 -13 -914 -17 -1235 -8 -66 2 -275 4 -465 3 -279 0
-359 3 -420 16 -119 25 -367 30 -470 10 -47 -10 -103 -19 -126 -22 -53 -6
-233 38 -274 67 l-30 21 27 35 c14 19 35 39 45 45 18 9 227 14 1248 25 201 2
388 3 415 2 60 -4 707 0 1150 6 325 4 703 20 713 30 3 4 52 6 108 6 92 0 104
-2 114 -19z m-51 -287 c29 -37 38 -127 16 -160 -30 -46 -76 -57 -210 -51 -66
3 -140 1 -165 -3 -25 -5 -211 -14 -415 -20 -458 -14 -607 -19 -710 -25 -231
-12 -338 -16 -525 -20 -113 -2 -312 -9 -442 -14 l-236 -10 -117 29 c-139 35
-186 37 -231 10 -77 -48 -229 -42 -364 15 -62 26 -66 26 -141 14 l-78 -12 -65
32 c-36 18 -66 37 -66 42 0 6 22 32 48 58 41 41 56 50 98 55 27 3 234 6 459 7
516 2 507 1 585 1 340 -4 1359 -3 1685 2 132 2 305 11 383 20 79 9 147 14 152
11 12 -7 178 15 219 30 59 22 97 19 120 -11z m-257 -354 c40 -12 60 -46 37
-61 -8 -5 -59 -27 -114 -49 -91 -36 -107 -40 -180 -38 -44 1 -125 -3 -180 -10
-55 -6 -199 -16 -320 -22 -121 -6 -267 -14 -325 -17 -58 -4 -132 -6 -165 -4
-33 1 -94 -3 -135 -8 -104 -14 -379 -31 -605 -37 -104 -2 -219 -6 -255 -8
-110 -7 -444 -8 -470 -3 -14 3 -124 9 -245 12 -240 7 -280 12 -320 43 -29 23
-69 71 -64 76 2 2 24 15 49 28 54 31 141 37 580 43 520 7 725 13 756 23 19 6
52 6 90 0 37 -6 83 -5 124 1 36 5 106 10 155 10 50 0 146 2 215 4 69 2 323 7
565 11 242 4 487 11 545 16 121 9 209 6 262 -10z m-835 -355 c45 0 85 -4 89
-8 9 -8 -52 -84 -136 -167 -81 -82 -205 -148 -294 -157 -65 -7 -66 -5 -21 51
38 47 65 118 53 139 -7 14 -18 12 -86 -17 -42 -18 -101 -45 -131 -60 -66 -34
-79 -26 -61 37 6 25 10 52 8 61 -3 15 -7 15 -42 -3 -22 -11 -73 -35 -115 -52
-42 -17 -97 -43 -124 -57 -26 -14 -49 -23 -51 -21 -3 3 17 35 45 72 61 84 64
103 12 91 -21 -4 -105 -9 -188 -9 -113 -1 -161 -6 -194 -18 -24 -10 -55 -17
-70 -17 -14 0 -50 -11 -80 -25 -30 -14 -55 -24 -56 -23 -3 3 -46 157 -49 172
0 5 267 10 626 11 345 1 631 5 635 9 5 5 40 5 78 0 39 -4 107 -8 152 -9z"/>
<path d="M4910 12240 c0 -6 11 -52 25 -104 14 -52 25 -107 25 -124 0 -36 -13
-42 -150 -72 -52 -12 -189 -44 -305 -72 -271 -66 -269 -64 -230 -198 8 -25 16
-58 20 -73 5 -26 29 -46 41 -34 3 3 0 31 -7 61 -20 91 -15 96 147 135 77 18
159 39 184 47 25 7 78 20 118 29 39 8 105 22 145 31 39 8 80 23 91 34 18 18
18 22 -20 172 -21 84 -42 159 -47 166 -11 14 -37 16 -37 2z"/>
<path d="M6040 12165 c-8 -9 -8 -15 -2 -15 12 0 26 19 19 26 -2 2 -10 -2 -17
-11z"/>
<path d="M5947 12094 c-14 -14 -7 -35 11 -32 9 2 17 10 17 17 0 16 -18 25 -28
15z"/>
<path d="M6480 12050 c0 -7 24 -20 36 -20 13 0 1 19 -16 23 -11 3 -20 2 -20
-3z"/>
<path d="M6630 12000 c0 -5 5 -10 10 -10 6 0 10 5 10 10 0 6 -4 10 -10 10 -5
0 -10 -4 -10 -10z"/>
<path d="M4105 11979 c-12 -19 5 -23 22 -6 16 16 16 17 1 17 -9 0 -20 -5 -23
-11z"/>
<path d="M6799 11960 c26 -43 26 -63 1 -115 -28 -59 -134 -127 -207 -133 l-53
-4 -76 76 c-42 42 -102 91 -133 108 -52 31 -62 33 -146 33 -127 -1 -191 -31
-286 -134 -73 -79 -94 -125 -117 -261 -17 -100 12 -227 71 -314 32 -47 34 -38
6 40 -17 49 -20 74 -15 149 7 120 35 199 100 281 90 116 220 173 352 154 88
-12 157 -58 261 -172 52 -59 118 -59 212 1 74 48 103 83 108 134 5 39 1 53
-32 106 -21 33 -44 66 -53 73 -8 7 -6 -2 7 -22z"/>
<path d="M6610 11880 c0 -5 4 -10 9 -10 6 0 13 5 16 10 3 6 -1 10 -9 10 -9 0
-16 -4 -16 -10z"/>
<path d="M5625 11780 c3 -5 10 -10 16 -10 5 0 9 5 9 10 0 6 -7 10 -16 10 -8 0
-12 -4 -9 -10z"/>
<path d="M7880 11762 c0 -5 -28 -60 -62 -123 -35 -63 -73 -132 -85 -154 -11
-22 -44 -83 -72 -135 -29 -51 -49 -100 -47 -106 7 -18 67 -47 76 -37 5 4 26
42 48 83 22 41 51 95 64 120 159 290 159 290 148 311 -11 20 -70 55 -70 41z"/>
<path d="M4080 11739 c0 -5 5 -7 10 -4 6 3 10 8 10 11 0 2 -4 4 -10 4 -5 0
-10 -5 -10 -11z"/>
<path d="M3266 11665 c29 -50 66 -105 71 -105 7 0 -41 80 -66 108 l-23 27 18
-30z"/>
<path d="M4986 11548 c8 -35 21 -86 29 -115 8 -28 15 -60 15 -71 0 -24 -17
-30 -165 -62 -55 -12 -140 -32 -190 -45 -49 -13 -124 -31 -166 -40 -48 -10
-83 -23 -94 -36 -18 -18 -17 -23 4 -116 23 -101 34 -123 57 -123 17 0 17 0 -1
74 -16 66 -9 92 28 101 59 15 243 58 337 80 209 47 232 53 245 66 10 11 7 36
-16 134 -48 196 -52 210 -76 213 -21 3 -21 3 -7 -60z"/>
<path d="M7550 11570 c0 -5 12 -10 26 -10 14 0 23 4 19 10 -3 6 -15 10 -26 10
-10 0 -19 -4 -19 -10z"/>
<path d="M3348 11525 c6 -35 -8 -48 -134 -130 -113 -74 -154 -113 -154 -147 0
-24 9 -42 78 -148 92 -143 117 -178 121 -174 2 2 -26 48 -62 102 -70 104 -82
146 -53 185 8 10 69 55 137 100 142 94 149 106 105 182 -31 53 -45 63 -38 30z"/>
<path d="M4143 11483 c-13 -2 -23 -9 -23 -14 0 -15 53 -7 58 9 2 6 0 11 -5 11
-4 -1 -18 -4 -30 -6z"/>
<path d="M5615 11450 c3 -5 8 -10 11 -10 2 0 4 5 4 10 0 6 -5 10 -11 10 -5 0
-7 -4 -4 -10z"/>
<path d="M4345 11440 c-3 -5 -2 -10 4 -10 5 0 13 5 16 10 3 6 2 10 -4 10 -5 0
-13 -4 -16 -10z"/>
<path d="M7415 11440 c3 -5 8 -10 11 -10 2 0 4 5 4 10 0 6 -5 10 -11 10 -5 0
-7 -4 -4 -10z"/>
<path d="M2767 11393 c-3 -5 -2 -15 3 -22 9 -16 40 -8 40 10 0 7 -3 9 -7 6 -3
-4 -12 -2 -19 4 -7 5 -15 6 -17 2z"/>
<path d="M4128 11393 c-21 -2 -38 -9 -38 -15 0 -13 78 -4 93 11 8 8 7 11 -3 9
-8 -1 -32 -3 -52 -5z"/>
<path d="M7430 11370 c0 -5 9 -10 21 -10 11 0 17 5 14 10 -3 6 -13 10 -21 10
-8 0 -14 -4 -14 -10z"/>
<path d="M4260 11360 c0 -5 4 -10 9 -10 6 0 13 5 16 10 3 6 -1 10 -9 10 -9 0
-16 -4 -16 -10z"/>
<path d="M8545 11213 c-44 -81 -101 -183 -126 -227 -25 -45 -74 -135 -109
-201 -35 -66 -76 -142 -92 -168 -15 -26 -28 -51 -28 -55 0 -4 -18 -39 -41 -77
-51 -87 -156 -280 -221 -405 -28 -52 -57 -101 -66 -108 -21 -16 -42 -9 -127
42 -99 60 -124 70 -131 51 -9 -23 3 -33 84 -75 42 -22 104 -56 137 -75 33 -19
67 -35 77 -35 21 0 58 44 82 100 11 25 36 74 57 110 20 36 69 124 108 195 40
72 76 137 81 145 4 8 19 36 32 61 21 42 209 387 246 454 110 194 180 324 185
344 4 17 -1 29 -20 47 -14 13 -31 24 -37 24 -6 -1 -47 -67 -91 -147z"/>
<path d="M4345 11340 c-3 -5 -2 -10 4 -10 5 0 13 5 16 10 3 6 2 10 -4 10 -5 0
-13 -4 -16 -10z"/>
<path d="M4157 11333 c-12 -12 -7 -21 14 -26 23 -6 79 11 79 24 0 10 -83 12
-93 2z"/>
<path d="M5580 11305 c14 -16 40 -20 40 -6 0 9 -24 21 -42 21 -6 0 -6 -6 2
-15z"/>
<path d="M7370 11290 c37 -30 70 -44 70 -29 0 5 -4 9 -9 9 -6 0 -22 11 -37 25
-15 14 -34 25 -43 25 -10 0 -4 -11 19 -30z"/>
<path d="M2842 11266 c-12 -6 -20 -15 -18 -21 2 -5 -3 -18 -12 -27 -24 -28 2
-21 28 7 13 14 29 25 36 25 8 0 11 6 8 15 -7 17 -10 17 -42 1z"/>
<path d="M2725 11240 c3 -5 10 -10 16 -10 5 0 9 5 9 10 0 6 -7 10 -16 10 -8 0
-12 -4 -9 -10z"/>
<path d="M4129 11220 c-31 -25 -8 -25 46 0 l40 19 -31 0 c-18 1 -42 -8 -55
-19z"/>
<path d="M7302 11215 c15 -8 29 -23 33 -33 6 -20 45 -42 73 -42 9 1 0 10 -21
21 -26 14 -37 25 -33 35 6 15 -30 34 -62 34 -12 -1 -9 -5 10 -15z"/>
<path d="M2856 11173 c-30 -26 -53 -49 -51 -51 6 -7 77 43 105 73 39 42 5 28
-54 -22z"/>
<path d="M8375 11200 c3 -5 8 -10 11 -10 2 0 4 5 4 10 0 6 -5 10 -11 10 -5 0
-7 -4 -4 -10z"/>
<path d="M5715 11140 c3 -5 11 -10 16 -10 6 0 7 5 4 10 -3 6 -11 10 -16 10 -6
0 -7 -4 -4 -10z"/>
<path d="M2945 11130 c3 -5 8 -10 11 -10 2 0 4 5 4 10 0 6 -5 10 -11 10 -5 0
-7 -4 -4 -10z"/>
<path d="M7240 11121 c0 -15 16 -22 57 -25 21 -2 47 -6 58 -11 l20 -8 -20 21
c-23 23 -93 42 -80 22 6 -9 3 -9 -14 -1 -13 7 -21 8 -21 2z"/>
<path d="M8240 11120 c8 -5 22 -10 30 -10 13 0 13 1 0 10 -8 5 -22 10 -30 10
-13 0 -13 -1 0 -10z"/>
<path d="M2859 11080 l-24 -21 33 16 c31 15 41 25 23 25 -5 0 -19 -9 -32 -20z"/>
<path d="M2962 11064 c-19 -20 -32 -37 -30 -39 9 -8 48 17 67 44 31 43 5 39
-37 -5z"/>
<path d="M8189 11070 c13 -11 27 -20 32 -20 18 0 8 10 -23 25 l-33 16 24 -21z"/>
<path d="M6752 11019 c-4 -48 -28 -86 -106 -163 -77 -77 -130 -111 -244 -157
-104 -42 -154 -51 -265 -50 -166 1 -306 51 -428 153 -53 44 -60 47 -41 21 36
-51 142 -142 207 -178 33 -18 105 -46 160 -61 90 -24 111 -26 206 -21 179 10
348 86 473 211 111 112 132 188 68 249 l-28 27 -2 -31z"/>
<path d="M2535 10945 c-106 -70 -136 -85 -162 -82 l-32 3 17 -29 c22 -37 59
-67 84 -67 11 0 78 38 148 85 92 61 137 85 159 85 38 0 39 7 4 48 -50 58 -71
54 -218 -43z"/>
<path d="M7180 11020 c20 -13 33 -13 25 0 -3 6 -14 10 -23 10 -15 0 -15 -2 -2
-10z"/>
<path d="M5204 10988 c21 -73 37 -172 34 -210 l-3 -43 -130 -31 c-71 -18 -285
-69 -475 -114 -450 -107 -423 -98 -415 -135 10 -52 27 -61 82 -46 27 7 64 17
83 21 19 4 166 39 325 78 160 38 344 82 410 97 174 39 184 43 191 71 6 23 -16
150 -49 279 -10 41 -16 51 -36 53 -21 3 -23 1 -17 -20z"/>
<path d="M3044 10969 c-22 -24 -24 -29 -8 -21 24 13 49 40 42 47 -2 3 -18 -9
-34 -26z"/>
<path d="M8220 10985 c7 -8 17 -15 22 -15 6 0 5 7 -2 15 -7 8 -17 15 -22 15
-6 0 -5 -7 2 -15z"/>
<path d="M8120 10960 c0 -5 5 -10 11 -10 5 0 7 5 4 10 -3 6 -8 10 -11 10 -2 0
-4 -4 -4 -10z"/>
<path d="M7136 10951 c-3 -5 4 -11 16 -14 30 -8 35 -1 9 12 -11 6 -22 7 -25 2z"/>
<path d="M7230 10950 c0 -5 9 -10 21 -10 11 0 17 5 14 10 -3 6 -13 10 -21 10
-8 0 -14 -4 -14 -10z"/>
<path d="M2980 10930 c0 -5 7 -7 15 -4 8 4 15 8 15 10 0 2 -7 4 -15 4 -8 0
-15 -4 -15 -10z"/>
<path d="M7391 10858 c-10 -24 -38 -74 -61 -113 -24 -38 -76 -135 -117 -215
-41 -80 -81 -151 -90 -158 -22 -16 -44 -8 -125 44 -68 43 -122 74 -133 74 -3
0 -5 -11 -5 -25 0 -21 10 -30 58 -53 31 -15 96 -52 143 -81 109 -66 123 -65
163 14 17 33 64 120 105 195 41 74 90 164 108 200 19 36 38 69 43 74 4 4 74
-29 155 -74 135 -74 175 -88 175 -61 0 6 -6 15 -12 21 -22 19 -361 200 -375
200 -8 0 -22 -19 -32 -42z"/>
<path d="M5015 10870 c-3 -5 1 -10 10 -10 9 0 13 5 10 10 -3 6 -8 10 -10 10
-2 0 -7 -4 -10 -10z"/>
<path d="M3339 10795 c69 -106 85 -120 27 -24 -25 42 -53 83 -62 90 -9 8 7
-22 35 -66z"/>
<path d="M3005 10849 c-11 -17 1 -21 15 -4 8 9 8 15 2 15 -6 0 -14 -5 -17 -11z"/>
<path d="M7155 10840 c3 -5 14 -10 23 -10 15 0 15 2 2 10 -20 13 -33 13 -25 0z"/>
<path d="M3170 10810 c0 -5 4 -10 9 -10 6 0 13 5 16 10 3 6 -1 10 -9 10 -9 0
-16 -4 -16 -10z"/>
<path d="M7094 10795 c11 -8 25 -15 30 -15 6 0 2 7 -8 15 -11 8 -25 15 -30 15
-6 0 -2 -7 8 -15z"/>
<path d="M4325 10760 c-3 -5 1 -10 9 -10 9 0 16 5 16 10 0 6 -4 10 -9 10 -6 0
-13 -4 -16 -10z"/>
<path d="M3065 10750 c-3 -5 -1 -10 4 -10 6 0 11 5 11 10 0 6 -2 10 -4 10 -3
0 -8 -4 -11 -10z"/>
<path d="M8000 10756 c0 -7 112 -47 117 -42 6 6 -85 46 -103 46 -8 0 -14 -2
-14 -4z"/>
<path d="M7930 10710 c0 -5 5 -10 11 -10 5 0 7 5 4 10 -3 6 -8 10 -11 10 -2 0
-4 -4 -4 -10z"/>
<path d="M4253 10687 c7 -22 36 -32 57 -19 11 6 27 12 37 12 9 0 13 3 10 7
-12 12 -109 13 -104 0z"/>
<path d="M3170 10659 c0 -5 5 -7 10 -4 6 3 10 8 10 11 0 2 -4 4 -10 4 -5 0
-10 -5 -10 -11z"/>
<path d="M7060 10650 c0 -5 5 -10 11 -10 5 0 7 5 4 10 -3 6 -8 10 -11 10 -2 0
-4 -4 -4 -10z"/>
<path d="M3466 10610 c12 -26 95 -150 100 -150 5 0 -66 114 -89 143 -10 12
-15 15 -11 7z"/>
<path d="M8042 10604 c10 -10 20 -15 24 -12 3 4 -5 12 -18 18 -22 12 -22 12
-6 -6z"/>
<path d="M7970 10480 c0 -5 5 -10 10 -10 6 0 10 5 10 10 0 6 -4 10 -10 10 -5
0 -10 -4 -10 -10z"/>
<path d="M3596 10408 c19 -31 64 -90 64 -84 0 10 -60 96 -66 96 -3 0 -2 -6 2
-12z"/>
<path d="M3697 10255 c19 -38 1 -68 -61 -102 -32 -18 -88 -56 -125 -83 -44
-34 -73 -49 -88 -47 -21 4 -21 3 -8 -24 20 -37 62 -69 83 -62 9 4 53 32 97 64
44 31 99 66 122 78 56 28 64 59 33 117 -23 45 -73 100 -53 59z"/>
<path d="M4847 9808 c-27 -27 -26 -13 -47 -798 -5 -190 -11 -352 -15 -361 -7
-18 33 -49 63 -49 44 0 47 17 47 314 l0 281 43 -3 c51 -4 82 17 82 55 0 26
-31 43 -82 43 l-31 0 7 207 c4 114 10 212 13 216 3 5 38 6 78 2 89 -8 118 3
113 43 -2 23 -11 30 -53 43 -27 9 -82 20 -122 24 -67 6 -74 5 -96 -17z"/>
<path d="M5888 9813 c-16 -17 -18 -44 -18 -229 0 -317 21 -947 33 -961 5 -7
22 -13 37 -13 36 0 48 30 39 100 -4 30 -10 161 -14 290 -7 211 -7 234 7 222
19 -16 38 -88 77 -302 50 -273 81 -344 141 -325 25 8 28 61 5 105 -8 16 -44
150 -80 298 l-65 270 42 88 c41 86 42 93 46 205 3 100 1 123 -16 162 -25 56
-84 94 -162 103 -47 5 -58 3 -72 -13z m122 -83 c59 -31 51 -275 -12 -377 -11
-18 -24 -33 -29 -33 -5 0 -9 89 -9 210 0 225 0 227 50 200z"/>
<path d="M5320 9792 c-65 -65 -84 -207 -77 -580 4 -241 8 -301 25 -373 39
-166 92 -238 182 -247 42 -4 56 0 88 20 104 69 144 262 136 658 -4 216 -19
319 -60 410 -36 80 -61 101 -147 122 -98 23 -114 22 -147 -10z m156 -78 c66
-31 76 -63 91 -293 30 -435 -6 -715 -94 -737 -35 -9 -53 4 -80 57 -37 76 -56
213 -57 429 -1 221 11 459 26 508 15 50 57 63 114 36z"/>
<path d="M7926 8351 c-3 -5 13 -60 35 -122 22 -63 63 -188 90 -279 28 -90 51
-166 53 -167 1 -2 10 3 18 10 15 11 15 17 -1 68 -10 31 -21 71 -24 90 -11 58
10 10 34 -77 26 -97 26 -96 49 -84 18 9 18 12 -1 72 -23 78 -23 75 2 52 63
-57 156 -225 183 -330 24 -91 21 -147 -8 -181 l-24 -27 -37 19 c-21 11 -55 36
-76 55 -38 35 -39 36 -55 155 -9 66 -20 124 -23 128 -4 4 -16 5 -25 1 -15 -6
-17 -15 -12 -53 3 -32 2 -39 -4 -21 -4 14 -8 37 -9 53 -1 27 -8 32 -34 22 -10
-5 -13 -19 -9 -57 3 -34 1 -53 -8 -58 -9 -6 -9 -13 0 -31 11 -24 11 -24 -12 2
-24 26 -58 44 -58 31 0 -4 21 -43 46 -86 42 -72 45 -82 39 -124 -8 -51 -35
-111 -59 -131 -44 -37 -87 63 -180 415 -55 206 -81 276 -117 315 -25 26 -33
29 -93 29 -58 0 -69 -3 -100 -30 -42 -37 -63 -88 -85 -205 l-16 -90 -28 48
c-16 26 -44 63 -63 82 -32 32 -39 35 -97 35 -45 0 -71 -6 -95 -20 -70 -43 -96
-174 -72 -362 10 -82 15 -98 29 -96 18 4 18 6 7 148 -5 68 -4 91 3 80 6 -8 11
-35 11 -59 0 -73 20 -171 35 -171 23 0 24 12 13 120 -9 92 -9 110 6 145 l17
40 21 -25 c59 -72 136 -274 208 -546 l43 -162 36 -6 c67 -11 141 -7 147 8 3 7
-6 71 -20 142 -47 247 -60 354 -60 526 -1 142 1 170 15 184 16 15 18 12 34
-36 10 -29 36 -129 60 -224 65 -261 119 -372 203 -415 21 -10 70 -21 109 -25
127 -12 176 24 204 152 l11 52 31 -24 c44 -33 81 -47 150 -53 75 -6 119 10
160 58 69 80 77 190 26 343 -70 211 -211 372 -375 426 l-62 21 5 38 c8 60 -15
148 -49 187 -27 31 -35 34 -83 34 -30 0 -56 -4 -59 -9z"/>
<path d="M711 12141 c-14 -25 0 -40 79 -86 36 -22 175 -112 310 -201 266 -176
321 -207 344 -198 9 3 16 17 16 30 0 19 -15 34 -67 68 -38 23 -157 104 -265
178 -188 129 -358 228 -392 228 -8 0 -20 -8 -25 -19z"/>
<path d="M9880 12024 c-41 -25 -137 -77 -213 -115 -76 -38 -141 -77 -144 -85
-3 -9 1 -23 10 -31 19 -20 26 -17 222 79 205 100 262 147 223 186 -16 16 -14
17 -98 -34z"/>
<path d="M9964 9366 c-3 -8 -4 -23 -2 -33 3 -15 16 -19 83 -23 44 -3 141 -3
215 0 119 4 135 7 138 23 8 43 -9 47 -225 47 -168 0 -205 -3 -209 -14z"/>
<path d="M245 9220 c-56 -5 -60 -7 -63 -32 -3 -22 1 -28 20 -32 13 -3 156 -8
318 -12 466 -11 434 -12 438 10 2 10 0 22 -5 27 -24 24 -552 54 -708 39z"/>
<path d="M9276 7234 c-11 -28 -7 -31 82 -90 55 -37 144 -114 243 -211 86 -84
163 -153 172 -153 9 0 21 9 27 20 9 17 -2 33 -85 123 -110 120 -228 224 -323
284 -71 45 -106 53 -116 27z"/>
<path d="M1470 7149 c-36 -23 -102 -68 -147 -101 -83 -60 -98 -83 -69 -107 19
-16 44 -3 209 107 114 76 128 88 125 111 -5 41 -43 38 -118 -10z"/>
</g>
</svg>
